Exact Audio Copy V0.99 prebeta 1 from 25. May 2007

EAC 抓取日志文件从22. 二月 2011, 22:17

群星 / 六、七十年代名人集

使用驱动器  ：PIONEER DVD-RW  DVR-115   Adapter: 0  ID: 0

读取模式     : 保护
使用精确流   : 是
废除音频缓冲 : 是
使用 C2 指针 : 否

组合读/写偏移校正              : 48
读取 Lead-In 和 Lead-Out       : 否
用静音填充抓取中丢失偏移的采样 : 是
去除首尾静音块                 : 否
已用接口                       : Win NT 及 2000 本地 Win32 接口

所用输出格式 : 内部 WAV 函数
样本格式     : 44.100 Hz;16 Bit;立体声
使用压缩偏移 : 48


被抓轨 CD 的 TOC

     音轨 |   开始   |   长度   | 起始扇区 | 结尾扇区 
    --------------------------------------------------
       1  |  0:00.32 |  5:24.25 |      32  |   24356  
       2  |  5:24.57 |  2:22.50 |   24357  |   35056  
       3  |  7:47.32 |  2:40.73 |   35057  |   47129  
       4  | 10:28.30 |  2:28.15 |   47130  |   58244  
       5  | 12:56.45 |  4:19.50 |   58245  |   77719  
       6  | 17:16.20 |  3:39.22 |   77720  |   94166  
       7  | 20:55.42 |  2:58.03 |   94167  |  107519  
       8  | 23:53.45 |  2:31.67 |  107520  |  118911  
       9  | 26:25.37 |  2:49.03 |  118912  |  131589  
      10  | 29:14.40 |  1:36.05 |  131590  |  138794  
      11  | 30:50.45 |  2:48.72 |  138795  |  151466  
      12  | 33:39.42 |  2:57.53 |  151467  |  164794  
      13  | 36:37.20 |  3:56.05 |  164795  |  182499  
      14  | 40:33.25 |  5:00.12 |  182500  |  205011  
      15  | 45:33.37 |  3:00.58 |  205012  |  218569  
      16  | 48:34.20 |  2:11.17 |  218570  |  228411  
      17  | 50:45.37 |  4:02.05 |  228412  |  246566  
      18  | 54:47.42 |  2:48.15 |  246567  |  259181  


范围状态及错误

已选择范围

     文件名 E:\20世纪中华歌坛名人百集珍藏版-六、七十年代名人集[lwg188原创]\群星 - 六、七十年代名人集.wav

     峰值电平 89.3 %
     范围质量 99.9 %
     复制 CRC E70B7445
     复制成功

没有错误发生

状态报告结尾
